HIERARCHY
ROOT root
{
	OFFSET	0	13.1	24.9
	CHANNELS 6  Xposition Yposition Zposition Xrotation Yrotation Zrotation
	JOINT spine_1
	{
		OFFSET	0	9.99999	0
		CHANNELS 3  Xrotation Yrotation Zrotation
		JOINT spine_2
		{
			OFFSET	0	112	-10
			CHANNELS 3  Xrotation Yrotation Zrotation
			JOINT spine_3
			{
				OFFSET	0	206.5	19.3
				CHANNELS 3  Xrotation Yrotation Zrotation
				JOINT spine_4
				{
					OFFSET	0	110.4	14.6
					CHANNELS 3  Xrotation Yrotation Zrotation
					JOINT neck_1
					{
						OFFSET	0	71.8	-50.3
						CHANNELS 3  Xrotation Yrotation Zrotation
						JOINT neck_2
						{
							OFFSET	0	86.2	-25.8
							CHANNELS 3  Xrotation Yrotation Zrotation
							JOINT head_ee
							{
								OFFSET	0	179.8	-8.7
								CHANNELS 3  Xrotation Yrotation Zrotation
								End Site
								{
									OFFSET	1	0	0
								}
							}
						}
					}
					JOINT left_clavicle
					{
						OFFSET	-43.2	22.4	-70.8
						CHANNELS 3  Xrotation Yrotation Zrotation
						JOINT left_shoulder
						{
							OFFSET	-93.9	-5.79999	48.7
							CHANNELS 3  Xrotation Yrotation Zrotation
							JOINT left_elbow
							{
								OFFSET	-291.4	-30.8	15.2
								CHANNELS 3  Xrotation Yrotation Zrotation
								JOINT left_lowarm_twist
								{
									OFFSET	-110.7	-3.89999	13.6
									CHANNELS 3  Xrotation Yrotation Zrotation
									JOINT left_hand
									{
										OFFSET	-110.7	-3.89999	13.6
										CHANNELS 3  Xrotation Yrotation Zrotation
										JOINT left_ee
										{
											OFFSET	-80.8	-5.10001	12.1
											CHANNELS 3  Xrotation Yrotation Zrotation
											End Site
											{
												OFFSET	1	0	0
											}
										}
									}
								}
							}
						}
					}
					JOINT right_clavicle
					{
						OFFSET	43.2	22.4	-70.8
						CHANNELS 3  Xrotation Yrotation Zrotation
						JOINT right_shoulder
						{
							OFFSET	93.9	-5.79999	48.7
							CHANNELS 3  Xrotation Yrotation Zrotation
							JOINT right_elbow
							{
								OFFSET	291.4	-30.8	15.2
								CHANNELS 3  Xrotation Yrotation Zrotation
								JOINT right_lowarm_twist
								{
									OFFSET	110.7	-3.89999	13.6
									CHANNELS 3  Xrotation Yrotation Zrotation
									JOINT right_hand
									{
										OFFSET	110.7	-3.89999	13.6
										CHANNELS 3  Xrotation Yrotation Zrotation
										JOINT right_ee
										{
											OFFSET	80.8	-5.10001	12.1
											CHANNELS 3  Xrotation Yrotation Zrotation
											End Site
											{
												OFFSET	1	0	0
											}
										}
									}
								}
							}
						}
					}
				}
			}
		}
	}
	JOINT left_hip
	{
		OFFSET	-82.8	-127.5	0.300001
		CHANNELS 3  Xrotation Yrotation Zrotation
		JOINT left_knee
		{
			OFFSET	-28.2	-396.7	2.2
			CHANNELS 3  Xrotation Yrotation Zrotation
			JOINT left_ankle
			{
				OFFSET	-11.7	-411.3	35.4
				CHANNELS 3  Xrotation Yrotation Zrotation
				JOINT left_toes
				{
					OFFSET	0	-60	-88.6
					CHANNELS 3  Xrotation Yrotation Zrotation
					JOINT left_foot_ee
					{
						OFFSET	-22.5	-16.5	-42.2
						CHANNELS 3  Xrotation Yrotation Zrotation
						End Site
						{
							OFFSET	1	0	0
						}
					}
				}
			}
		}
	}
	JOINT right_hip
	{
		OFFSET	82.8	-127.5	0.300001
		CHANNELS 3  Xrotation Yrotation Zrotation
		JOINT right_knee
		{
			OFFSET	28.2	-396.7	2.2
			CHANNELS 3  Xrotation Yrotation Zrotation
			JOINT right_ankle
			{
				OFFSET	11.7	-411.3	35.4
				CHANNELS 3  Xrotation Yrotation Zrotation
				JOINT right_toes
				{
					OFFSET	0	-60	-88.6
					CHANNELS 3  Xrotation Yrotation Zrotation
					JOINT right_foot_ee
					{
						OFFSET	22.5	-16.5	-42.2
						CHANNELS 3  Xrotation Yrotation Zrotation
						End Site
						{
							OFFSET	1	0	0
						}
					}
				}
			}
		}
	}
}
MOTION
Frames: 16
Frame Time: 0.02
1141.4708117 730.885 -1813.63218776 -17.378917662 30.1294600627 3.59757001344 7.39806 0.271934 1.41841 7.39917 0.181136 1.43283 7.40198 0.0623818 1.44289 7.39919 0.289453 1.41494 -17.0573 4.71267 -1.44783 -17.1592 9.85929 0.37973 -0.0 0.0 -0.0 0.959243 12.5226 3.07391 -26.4465 -15.4037 70.3828 0.196658 -5.56424 0.00955668 -77.1425 -7.45834 5.30909 -3.1622 -27.5847 -33.4176 -0.0 0.0 -0.0 11.7637 7.14162 -23.7088 -43.829 56.369 -40.6838 0.710445 19.3887 -0.121368 -43.3593 3.3153 -4.29135 0.160924 14.0687 4.90287 0.0 0.0 0.0 47.769 -6.00471 4.27984 -74.7024 -3.97815 9.9268 12.3839 -27.0957 -2.12497 29.3865 -0.0 -0.0 -0.0 0.0 -0.0 29.8836 -21.5418 6.08652 -19.5988 -0.300196 -2.97798 37.7732 27.6666 5.54132 5.58974 -0.0 -0.0 0.0 0.0 0.0 
1149.70975315 730.885 -1819.10135386 -17.1468880782 28.8081142684 3.12594998331 7.39806 0.271934 1.41841 7.39917 0.181136 1.43283 7.40198 0.0623818 1.44289 7.39919 0.289453 1.41494 -17.0573 4.71267 -1.44783 -17.1592 9.85929 0.37973 -0.0 0.0 -0.0 0.959243 12.5226 3.07391 -26.4465 -15.4037 70.3828 0.196658 -5.56424 0.00955668 -77.1425 -7.45834 5.30909 -3.1622 -27.5847 -33.4176 -0.0 0.0 -0.0 11.7637 7.14162 -23.7088 -43.829 56.369 -40.6838 0.710445 19.3887 -0.121368 -43.3593 3.3153 -4.29135 0.160924 14.0687 4.90287 0.0 0.0 0.0 47.769 -6.00471 4.27984 -74.7024 -3.97815 9.9268 12.3839 -27.0957 -2.12497 29.3865 -0.0 -0.0 -0.0 0.0 -0.0 29.8836 -21.5418 6.08652 -19.5988 -0.300196 -2.97798 37.7732 27.6666 5.54132 5.58974 -0.0 -0.0 0.0 0.0 0.0 
1120.93531781 731.72 -1819.23165647 -18.0353974287 31.950124418 3.82025227708 7.38655 0.335148 1.36053 7.38755 0.247904 1.37909 7.39194 0.133128 1.39485 7.38939 0.351729 1.35634 -16.8269 4.60504 -0.508737 -16.9157 9.12678 1.19896 -0.0 0.0 -0.0 1.41041 13.7538 3.92442 -28.2037 -13.5287 70.0231 0.191681 -5.4243 0.00908016 -77.7951 -7.5415 5.304 -1.98342 -28.1139 -25.1333 -0.0 0.0 -0.0 11.7548 11.0151 -23.721 -42.7177 56.6331 -38.7951 0.687495 18.8071 -0.113859 -42.8344 3.25752 -4.25672 0.397118 15.2692 3.8272 0.0 0.0 0.0 51.2264 -5.51163 5.31186 -69.4278 -3.29925 9.47673 8.76954 -20.4507 -1.42294 24.3469 -0.0 -0.0 -0.0 0.0 -0.0 30.5949 -26.5749 8.02881 -19.5666 -0.300543 -2.97304 37.4645 29.4151 5.62263 1.57011 -0.0 -0.0 0.0 0.0 0.0 
1073.97679641 733.985 -1825.49723506 -22.2329551518 37.2337805939 9.05693711806 7.88867 0.175312 0.972702 7.88919 0.113064 0.981885 7.89025 0.0401274 0.987558 7.88894 0.195583 0.96883 -17.1937 5.17135 -0.73677 -17.3122 10.3437 1.22881 -0.0 0.0 -0.0 1.9473 15.338 4.90678 -35.4619 -13.1143 69.9386 0.212062 -5.99703 0.0111082 -77.8241 -7.54519 5.30375 -1.01375 -23.6565 -16.823 -0.0 0.0 -0.0 11.8018 8.16417 -23.8133 -42.4259 55.1177 -35.5884 0.705123 19.2542 -0.119607 -41.7918 3.1437 -4.18636 -1.55284 16.9978 17.8593 0.0 0.0 0.0 55.0336 -6.80724 5.44837 -62.1005 -2.43102 8.7527 3.57534 -17.8544 -0.577329 15.1288 -0.0 -0.0 -0.0 0.0 -0.0 29.4173 -28.7033 7.68702 -17.5025 -0.317008 -2.65678 37.622 30.1239 5.68738 -0.223188 0.0 0.0 0.0 0.0 0.0 
1057.4484174 733.557 -1838.02987463 -23.1139935393 39.1789910486 10.5843265379 7.9099 0.110084 0.832533 7.91029 0.0568869 0.83785 7.91048 -0.00495234 0.839765 7.90951 0.12773 0.830009 -17.2632 4.93405 0.251904 -17.3606 9.33987 2.06874 -0.0 0.0 -0.0 1.46167 17.2594 4.27799 -34.3932 -12.8734 68.6263 0.209366 -5.92133 0.0108282 -79.0117 -7.69633 5.29196 0.574895 -26.4271 -7.45231 -0.0 0.0 -0.0 11.6495 5.71833 -23.4168 -40.6438 54.328 -34.4975 0.777183 21.0563 -0.14444 -46.6244 3.68159 -4.49481 -3.39493 14.438 30.2496 0.0 0.0 0.0 55.3631 -5.64824 4.10139 -58.4063 -2.03037 8.34752 4.5261 -10.8963 -0.692682 10.3662 -0.0 -0.0 -0.0 0.0 -0.0 28.2021 -27.4259 7.38915 -18.4781 -0.310646 -2.80633 37.845 28.2307 5.58399 -0.472079 0.0 0.0 0.0 0.0 0.0 
1042.99445128 734.079 -1846.48187086 -23.3851719166 39.2616688623 11.0289325023 8.02488 0.123807 0.722161 8.02516 0.0776044 0.728575 8.02565 0.0252282 0.732262 8.02493 0.140556 0.719089 -17.5723 4.1229 -0.181164 -17.6466 8.02476 1.38203 -0.0 0.0 -0.0 2.92411 17.3542 6.54538 -37.078 -11.1629 66.7363 0.19371 -5.48137 0.00927297 -75.8634 -7.29514 5.31629 0.751283 -28.0735 -7.02734 -0.0 0.0 -0.0 11.4362 7.22263 -22.9842 -41.4259 54.6039 -33.0949 0.753238 20.4621 -0.135952 -50.6957 4.15353 -4.71879 -4.975 16.1073 44.097 0.0 0.0 0.0 56.0646 -6.48761 3.58751 -46.6564 -0.943595 6.90372 -3.16556 -4.53756 0.478913 2.41388 -0.0 -0.0 -0.0 0.0 -0.0 27.1026 -27.0338 7.46494 -17.5221 -0.316905 -2.65979 37.5552 29.129 5.61286 1.042 -0.0 -0.0 0.0 0.0 0.0 
1027.28664024 729.753 -1858.56966332 -23.7038951818 39.243580962 11.7614251312 8.13992 0.107685 0.580015 8.1401 0.0705598 0.585691 8.1405 0.0296148 0.589182 8.14003 0.122292 0.577111 -17.9869 4.79628 0.0341712 -18.0889 9.20675 1.87413 -0.0 0.0 -0.0 2.56702 19.6181 6.09028 -36.6862 -11.4257 65.8062 0.198437 -5.61427 0.00972993 -74.9287 -7.17576 5.31923 1.91288 -27.1741 0.807627 -0.0 0.0 -0.0 11.0854 4.03762 -22.1264 -38.5209 53.0281 -32.9059 0.959401 25.4194 -0.216386 -49.0822 3.96461 -4.63404 -5.53625 9.44777 46.0635 0.0 0.0 0.0 56.5292 -12.5686 5.67176 -40.5687 -0.503346 6.07771 -9.6339 5.59211 1.43764 2.51834 -0.0 -0.0 -0.0 0.0 -0.0 26.6642 -29.5247 7.7554 -18.362 -0.311536 -2.78854 37.5427 32.3054 5.83944 5.51778 -0.0 -0.0 0.0 0.0 0.0 
1013.14831241 729.122 -1872.39703917 -25.5743671754 39.7871424237 13.9400181681 8.23817 0.143093 0.359187 8.23823 0.119947 0.367564 8.23888 0.0947123 0.37486 8.23871 0.152725 0.355198 -16.3379 5.15313 0.624656 -16.4286 9.52757 2.41831 -0.0 0.0 -0.0 3.69157 19.8765 7.76958 -39.2119 -9.64171 63.6767 0.197592 -5.59051 0.00964742 -73.9414 -7.0496 5.3202 3.03795 -28.5461 7.29839 -0.0 0.0 -0.0 11.223 0.712297 -22.2541 -36.1428 50.8913 -31.2521 1.09987 28.5826 -0.280183 -44.72 3.46654 -4.37867 -6.86941 12.518 63.0189 0.0 0.0 0.0 55.5769 -11.7447 5.18919 -33.2067 -0.0920577 5.02463 19.9133 22.2365 -2.81697 -5.48149 0.0 0.0 -0.0 0.0 -0.0 25.6048 -29.008 7.02526 -18.5277 -0.310254 -2.81393 37.2757 32.5292 5.82847 18.2257 -0.0 -0.0 0.0 0.0 0.0 
1012.03651259 729.122 -1871.3895479 -25.6323086617 39.9319628652 14.0304234089 8.23817 0.143093 0.359187 8.23823 0.119947 0.367564 8.23888 0.0947123 0.37486 8.23871 0.152725 0.355198 -16.3379 5.15313 0.624656 -16.4286 9.52757 2.41831 -0.0 0.0 -0.0 3.69157 19.8765 7.76958 -39.2119 -9.64171 63.6767 0.197592 -5.59051 0.00964742 -73.9414 -7.0496 5.3202 3.03795 -28.5461 7.29839 -0.0 0.0 -0.0 11.223 0.712297 -22.2541 -36.1428 50.8913 -31.2521 1.09987 28.5826 -0.280183 -44.72 3.46654 -4.37867 -6.86941 12.518 63.0189 0.0 0.0 0.0 55.5769 -11.7447 5.18919 -33.2067 -0.0920577 5.02463 19.9133 22.2365 -2.81697 -5.48149 0.0 0.0 -0.0 0.0 -0.0 25.6048 -29.008 7.02526 -18.5277 -0.310254 -2.81393 37.2757 32.5292 5.82847 18.2257 -0.0 -0.0 0.0 0.0 0.0 
999.611320721 721.729 -1886.44825131 -24.9517813447 39.6583961097 14.2208119185 8.17161 0.25833 0.315701 8.17163 0.237718 0.331499 8.17294 0.214262 0.347121 8.17287 0.266394 0.308926 -15.2205 3.13716 0.438329 -15.249 5.7441 1.46436 -0.0 0.0 -0.0 3.32056 20.1138 7.22254 -40.4591 -10.3759 64.386 0.190959 -5.40397 0.00901202 -75.707 -7.27517 5.31692 3.44847 -28.254 10.0812 -0.0 0.0 -0.0 11.5153 3.4098 -23.031 -37.3887 50.4704 -29.4667 0.971341 25.6952 -0.221537 -50.7006 4.15411 -4.71904 -6.99377 11.4544 64.0995 0.0 0.0 0.0 55.8454 -15.1297 5.35368 -22.5086 0.257412 3.42236 -8.49294 29.5235 1.35212 -13.1078 0.0 0.0 -0.0 0.0 -0.0 23.4838 -32.0 7.75461 -16.5048 -0.320879 -2.50375 37.5074 32.2098 5.82833 7.12393 -0.0 -0.0 0.0 0.0 0.0 
993.897905081 721.729 -1881.20058772 -25.2371032957 40.3839206667 14.6644886487 8.17161 0.25833 0.315701 8.17163 0.237718 0.331499 8.17294 0.214262 0.347121 8.17287 0.266394 0.308926 -15.2205 3.13716 0.438329 -15.249 5.7441 1.46436 -0.0 0.0 -0.0 3.32056 20.1138 7.22254 -40.4591 -10.3759 64.386 0.190959 -5.40397 0.00901202 -75.707 -7.27517 5.31692 3.44847 -28.254 10.0812 -0.0 0.0 -0.0 11.5153 3.4098 -23.031 -37.3887 50.4704 -29.4667 0.971341 25.6952 -0.221537 -50.7006 4.15411 -4.71904 -6.99377 11.4544 64.0995 0.0 0.0 0.0 55.8454 -15.1297 5.35368 -22.5086 0.257412 3.42236 -8.49294 29.5235 1.35212 -13.1078 0.0 0.0 -0.0 0.0 -0.0 23.4838 -32.0 7.75461 -16.5048 -0.320879 -2.50375 37.5074 32.2098 5.82833 7.12393 -0.0 -0.0 0.0 0.0 0.0 
989.890448579 721.729 -1877.43054407 -25.4458507465 40.8974491223 14.9849873597 8.17161 0.25833 0.315701 8.17163 0.237718 0.331499 8.17294 0.214262 0.347121 8.17287 0.266394 0.308926 -15.2205 3.13716 0.438329 -15.249 5.7441 1.46436 -0.0 0.0 -0.0 3.32056 20.1138 7.22254 -40.4591 -10.3759 64.386 0.190959 -5.40397 0.00901202 -75.707 -7.27517 5.31692 3.44847 -28.254 10.0812 -0.0 0.0 -0.0 11.5153 3.4098 -23.031 -37.3887 50.4704 -29.4667 0.971341 25.6952 -0.221537 -50.7006 4.15411 -4.71904 -6.99377 11.4544 64.0995 0.0 0.0 0.0 55.8454 -15.1297 5.35368 -22.5086 0.257412 3.42236 -8.49294 29.5235 1.35212 -13.1078 0.0 0.0 -0.0 0.0 -0.0 23.4838 -32.0 7.75461 -16.5048 -0.320879 -2.50375 37.5074 32.2098 5.82833 7.12393 -0.0 -0.0 0.0 0.0 0.0 
984.99172757 721.729 -1872.71860156 -25.711294321 41.530594867 15.3878550911 8.17161 0.25833 0.315701 8.17163 0.237718 0.331499 8.17294 0.214262 0.347121 8.17287 0.266394 0.308926 -15.2205 3.13716 0.438329 -15.249 5.7441 1.46436 -0.0 0.0 -0.0 3.32056 20.1138 7.22254 -40.4591 -10.3759 64.386 0.190959 -5.40397 0.00901202 -75.707 -7.27517 5.31692 3.44847 -28.254 10.0812 -0.0 0.0 -0.0 11.5153 3.4098 -23.031 -37.3887 50.4704 -29.4667 0.971341 25.6952 -0.221537 -50.7006 4.15411 -4.71904 -6.99377 11.4544 64.0995 0.0 0.0 0.0 55.8454 -15.1297 5.35368 -22.5086 0.257412 3.42236 -8.49294 29.5235 1.35212 -13.1078 0.0 0.0 -0.0 0.0 -0.0 23.4838 -32.0 7.75461 -16.5048 -0.320879 -2.50375 37.5074 32.2098 5.82833 7.12393 -0.0 -0.0 0.0 0.0 0.0 
978.193787959 721.729 -1865.98403204 -26.0997014567 42.4195126598 15.9685811036 8.17161 0.25833 0.315701 8.17163 0.237718 0.331499 8.17294 0.214262 0.347121 8.17287 0.266394 0.308926 -15.2205 3.13716 0.438329 -15.249 5.7441 1.46436 -0.0 0.0 -0.0 3.32056 20.1138 7.22254 -40.4591 -10.3759 64.386 0.190959 -5.40397 0.00901202 -75.707 -7.27517 5.31692 3.44847 -28.254 10.0812 -0.0 0.0 -0.0 11.5153 3.4098 -23.031 -37.3887 50.4704 -29.4667 0.971341 25.6952 -0.221537 -50.7006 4.15411 -4.71904 -6.99377 11.4544 64.0995 0.0 0.0 0.0 55.8454 -15.1297 5.35368 -22.5086 0.257412 3.42236 -8.49294 29.5235 1.35212 -13.1078 0.0 0.0 -0.0 0.0 -0.0 23.4838 -32.0 7.75461 -16.5048 -0.320879 -2.50375 37.5074 32.2098 5.82833 7.12393 -0.0 -0.0 0.0 0.0 0.0 
892.63011628 691.03 -1983.45334493 -30.7664001937 47.1787189601 25.5275915975 8.26101 0.150314 0.247948 8.26103 0.134232 0.25701 8.26158 0.116576 0.265486 8.26152 0.157041 0.243743 -11.4551 0.870375 -3.07681 -11.4338 3.65614 -2.73279 -0.0 0.0 -0.0 2.6934 12.0523 5.93911 -34.6721 -8.55621 62.6188 0.343997 -9.67086 0.0291005 -70.4563 -6.60427 5.30612 8.25348 -25.8429 46.3086 -0.0 0.0 -0.0 9.49198 -0.923605 -18.5702 -23.1737 40.2309 -44.2209 1.04095 27.2775 -0.252584 -41.9622 3.16222 -4.198 -8.81591 -8.17454 73.0847 0.0 0.0 0.0 52.9073 -22.4059 3.50348 -10.1639 0.28321 1.53208 37.4559 23.3536 -4.86907 -15.753 0.0 0.0 -0.0 0.0 -0.0 11.0174 -21.8772 -3.0023 -18.6902 -0.308926 -2.83883 36.3178 27.1466 5.36048 29.923 -0.0 -0.0 0.0 0.0 0.0 
889.256453588 691.03 -1980.24965194 -30.9788770417 47.506192236 25.8165104038 8.26101 0.150314 0.247948 8.26103 0.134232 0.25701 8.26158 0.116576 0.265486 8.26152 0.157041 0.243743 -11.4551 0.870375 -3.07681 -11.4338 3.65614 -2.73279 -0.0 0.0 -0.0 2.6934 12.0523 5.93911 -34.6721 -8.55621 62.6188 0.343997 -9.67086 0.0291005 -70.4563 -6.60427 5.30612 8.25348 -25.8429 46.3086 -0.0 0.0 -0.0 9.49198 -0.923605 -18.5702 -23.1737 40.2309 -44.2209 1.04095 27.2775 -0.252584 -41.9622 3.16222 -4.198 -8.81591 -8.17454 73.0847 0.0 0.0 0.0 52.9073 -22.4059 3.50348 -10.1639 0.28321 1.53208 37.4559 23.3536 -4.86907 -15.753 0.0 0.0 -0.0 0.0 -0.0 11.0174 -21.8772 -3.0023 -18.6902 -0.308926 -2.83883 36.3178 27.1466 5.36048 29.923 -0.0 -0.0 0.0 0.0 0.0 
